<svg xmlns:svg="http://www.w3.org/2000/svg" xmlns="http://www.w3.org/2000/svg" svg:contrastcolor="4EC3E0" svg:template="contrast" svg:presentation="2.5" svg:layouttype="above-text" svg:id1="69" svg:id2="68" svg:companyname="Naturzen Wellness" viewBox="0 0 278.981 181">
  <g stroke-miterlimit="10" font-weight="none" font-size="none" text-anchor="none" style="mix-blend-mode:normal" font-family="none" fill="#5ccd57">
    <path d="M25.116 145.28h8.935v-36.572h-8.778v12.696c0 3.97.052 8.673.052 8.725h-.156l-15.57-21.421H.717v36.572h8.778v-12.539c0-4.754-.105-9.247-.105-9.3h.157zm39.185-6.06l2.195 6.06H75.9l-14.159-36.572h-9.979L37.656 145.28h9.247l2.195-6.06zm-2.873-7.994h-9.457l2.613-7.314c1.149-3.03 1.985-5.277 2.037-5.33h.157c.052.053.888 2.352 2.038 5.382zm42.163-14.368v-8.15H72.45v8.15h11.182v28.422h8.777v-28.422zm36.102-8.15h-8.673v20.01c0 6.27-2.455 8.987-7.157 8.987-4.755 0-7.158-2.717-7.158-8.987v-20.01h-8.882v20.271c0 11.025 6.322 17.033 15.935 17.033 9.561 0 15.935-6.008 15.935-17.033zm25.079 36.572h10.397l-8.36-13.793c4.441-1.672 6.897-5.381 6.897-10.397 0-7.576-5.382-12.382-14.577-12.382h-13.898v36.572h8.778v-12.069h3.918zm-10.763-19.07v-9.56h5.642c3.396 0 5.068 1.828 5.068 4.858 0 3.083-1.776 4.702-5.015 4.702zm54.702-9.038v-8.464h-30.407v8.15h14.367c2.3 0 4.964-.052 5.016-.052l.104.209c0 .052-1.41 1.306-3.552 3.448L177.78 137.13v8.15h30.93v-8.15h-14.107c-3.187 0-5.433.052-5.485.052l-.105-.209c0-.052 1.88-1.62 4.232-4.023zm4.911 28.108h26.907v-8.15h-18.13v-6.688h13.167v-7.314H222.4v-6.27h17.868v-8.15h-26.646zm56.427 0h8.934v-36.572h-8.778v12.696c0 3.97.053 8.673.053 8.725h-.157l-15.57-21.421h-8.881v36.572h8.778v-12.539c0-4.754-.105-9.247-.105-9.3h.157zM72.99 180.555h2.942l7.697-23.945h-2.771l-3.729 11.596c-1.163 3.729-2.6 8.381-2.634 8.45h-.068c-.034-.069-1.403-4.687-2.258-7.526l-2.805-9.305h-3.25l-2.84 9.27c-.854 2.874-2.223 7.492-2.257 7.56h-.068c-.034-.068-1.505-4.72-2.737-8.654l-3.558-11.391h-3.078l7.73 23.945h3.011l3.284-10.57c1.129-3.729 1.916-6.74 1.95-6.773h.068c.035.034.856 3.044 1.95 6.533zm13.889 0h16.18v-2.6h-13.41v-8.62h10.4v-2.6h-10.4v-7.526h13.342v-2.6H86.879zm20.524 0h15.394v-2.6h-12.623V156.61h-2.77zm19.294 0h15.394v-2.6h-12.623V156.61h-2.771zm36.09 0h2.839V156.61h-2.805v13.683c0 2.77.068 5.576.068 5.61h-.068l-14.026-19.293h-2.805v23.945h2.771v-13.717c0-2.976-.068-5.713-.068-5.747h.068zm8.073 0h16.18v-2.6h-13.41v-8.62h10.4v-2.6h-10.4v-7.526h13.342v-2.6H170.86zm19.088-6.294c.753 5.405 5.37 6.739 9.407 6.739 5.337 0 8.484-2.292 8.484-6.807 0-5.269-4.379-6.397-7.936-7.082-3.421-.684-6.432-1.368-6.432-4.55 0-2.428 1.745-3.933 5.234-3.933 3.524 0 5.474 1.54 6.124 4.173l2.668-.718c-1.026-4.105-4.31-5.952-8.758-5.952-5.028 0-8.107 2.36-8.107 6.533 0 4.858 4.174 6.021 7.423 6.774 2.976.65 6.945.855 6.945 4.789 0 2.873-2.121 4.276-5.61 4.276-3.66 0-6.5-1.54-6.774-4.96zm20.285 0c.753 5.405 5.371 6.739 9.408 6.739 5.336 0 8.483-2.292 8.483-6.807 0-5.269-4.378-6.397-7.936-7.082-3.42-.684-6.431-1.368-6.431-4.55 0-2.428 1.744-3.933 5.234-3.933 3.523 0 5.473 1.54 6.123 4.173l2.668-.718c-1.026-4.105-4.31-5.952-8.757-5.952-5.029 0-8.107 2.36-8.107 6.533 0 4.858 4.173 6.021 7.423 6.774 2.976.65 6.944.855 6.944 4.789 0 2.873-2.12 4.276-5.61 4.276-3.66 0-6.5-1.54-6.773-4.96zM.717 168.818v-.506h43.27v.506zm278.266-.506v.506h-43.27v-.506zM108.993 1h36.146L87.305 73.292H51.16z"/>
    <path d="M158.283 1h36.146l-57.834 72.292H100.45z" opacity=".55"/>
    <path d="M207.573 1h36.146l-57.834 72.292H149.74z" opacity=".314"/>
  </g>
  <path data-path-id="path-id-79676" class="invisible-bbox" fill="transparent" d="M-.15 108h278v37h-278z"/>
  <path data-path-id="path-id-87822" class="invisible-bbox" fill="transparent" d="M50.85 0h94v72h-94z"/>
  <path data-path-id="path-id-56301" class="invisible-bbox" fill="transparent" d="M99.85 0h94v72h-94z"/>
  <path data-path-id="path-id-98664" class="invisible-bbox" fill="transparent" d="M148.85 0h94v72h-94z"/>
  <path data-path-id="path-id-6760" class="invisible-bbox" fill="transparent" d="M50.85 155h177v25h-177z"/>
  <path data-path-id="path-id-92288" class="invisible-bbox" fill="transparent" d="M-.15 167h278v1h-278z"/>
</svg>
